<svg xmlns="http://www.w3.org/2000/svg" xmlns:xlink="http://www.w3.org/1999/xlink" width="177" height="179" version="1.1" style="shape-rendering:geometricPrecision;text-rendering:geometricPrecision;image-rendering:optimizeQuality;fill-rule:evenodd;clip-rule:evenodd"><g><path style="opacity:1" fill="#cd9f25" d="M 39.5,-0.5 C 40.1667,-0.5 40.8333,-0.5 41.5,-0.5C 41.5,-0.166667 41.5,0.166667 41.5,0.5C 40.9569,0.559992 40.6236,0.893326 40.5,1.5C 47.5,2.16667 54.5,2.83333 61.5,3.5C 63.9813,5.87934 63.9813,8.21267 61.5,10.5C 60.2804,8.41863 59.6137,6.41863 59.5,4.5C 57.556,5.1892 55.556,5.6892 53.5,6C 54.4777,7.92377 54.8111,10.0904 54.5,12.5C 54.1667,12.5 53.8333,12.5 53.5,12.5C 51.7545,14.8334 50.4212,14.3334 49.5,11C 50.331,7.89186 51.1643,8.05853 52,11.5C 52.4974,8.85397 52.6641,6.1873 52.5,3.5C 50.396,3.2011 48.396,3.53443 46.5,4.5C 47.8106,10.9623 47.8106,17.2957 46.5,23.5C 45.8333,23.8333 45.1667,24.1667 44.5,24.5C 43.1862,18.333 43.1862,12.1664 44.5,6C 44,5.5 43.5,5 43,4.5C 41.8173,5.73101 40.6507,5.73101 39.5,4.5C 38.9478,2.9974 38.9478,1.33073 39.5,-0.5 Z"/></g><g><path style="opacity:1" fill="#f2c839" d="M 53.5,12.5 C 58.0724,14.1172 62.5724,16.1172 67,18.5C 67.7975,20.2588 67.6309,21.9255 66.5,23.5C 64.5914,22.6518 62.5914,22.3184 60.5,22.5C 60.9175,21.7784 61.5842,21.2784 62.5,21C 61.1667,19.6667 59.8333,18.3333 58.5,17C 57.0654,17.3112 55.7321,17.1445 54.5,16.5C 53.4381,19.4364 53.4381,22.4364 54.5,25.5C 52.7629,22.992 51.9296,19.992 52,16.5C 51.5034,18.8098 51.3367,21.1432 51.5,23.5C 49.857,23.4802 48.5237,24.1468 47.5,25.5C 46.7025,25.0431 46.3691,24.3764 46.5,23.5C 47.8106,17.2957 47.8106,10.9623 46.5,4.5C 48.396,3.53443 50.396,3.2011 52.5,3.5C 52.6641,6.1873 52.4974,8.85397 52,11.5C 51.1643,8.05853 50.331,7.89186 49.5,11C 50.4212,14.3334 51.7545,14.8334 53.5,12.5 Z"/></g><g><path style="opacity:1" fill="#fbdf3c" d="M 41.5,0.5 C 48.3213,1.32854 55.3213,1.82854 62.5,2C 69.2007,4.4933 70.2007,8.4933 65.5,14C 68.2636,16.976 69.097,20.476 68,24.5C 67.2917,25.3805 66.4584,26.0472 65.5,26.5C 64.8501,26.1961 64.1835,25.8627 63.5,25.5C 60.9173,26.479 58.2506,27.1457 55.5,27.5C 51.1572,26.2477 46.8239,26.2477 42.5,27.5C 41.2867,27.2528 40.62,26.5862 40.5,25.5C 41.9587,25.5674 43.2921,25.2341 44.5,24.5C 45.1667,24.1667 45.8333,23.8333 46.5,23.5C 46.3691,24.3764 46.7025,25.0431 47.5,25.5C 48.5237,24.1468 49.857,23.4802 51.5,23.5C 51.3367,21.1432 51.5034,18.8098 52,16.5C 51.9296,19.992 52.7629,22.992 54.5,25.5C 55.2506,26.5735 56.2506,26.7401 57.5,26C 59.4257,25.5776 60.4257,24.4109 60.5,22.5C 62.5914,22.3184 64.5914,22.6518 66.5,23.5C 67.6309,21.9255 67.7975,20.2588 67,18.5C 62.5724,16.1172 58.0724,14.1172 53.5,12.5C 53.8333,12.5 54.1667,12.5 54.5,12.5C 57.2547,13.8103 59.5881,13.1437 61.5,10.5C 63.9813,8.21267 63.9813,5.87934 61.5,3.5C 54.5,2.83333 47.5,2.16667 40.5,1.5C 40.6236,0.893326 40.9569,0.559992 41.5,0.5 Z M 60.5,22.5 C 60.4257,24.4109 59.4257,25.5776 57.5,26C 56.2506,26.7401 55.2506,26.5735 54.5,25.5C 53.4381,22.4364 53.4381,19.4364 54.5,16.5C 55.7321,17.1445 57.0654,17.3112 58.5,17C 59.8333,18.3333 61.1667,19.6667 62.5,21C 61.5842,21.2784 60.9175,21.7784 60.5,22.5 Z"/></g><g><path style="opacity:1" fill="#c1931d" d="M 40.5,25.5 C 40.62,26.5862 41.2867,27.2528 42.5,27.5C 46.8239,26.2477 51.1572,26.2477 55.5,27.5C 58.2506,27.1457 60.9173,26.479 63.5,25.5C 64.1835,25.8627 64.8501,26.1961 65.5,26.5C 65.9354,29.6127 64.9354,30.2793 62.5,28.5C 60.6274,28.4823 60.2941,28.9823 61.5,30C 54.1742,30.4997 46.8409,30.6663 39.5,30.5C 39.2155,28.5853 39.5489,26.9187 40.5,25.5 Z"/></g><g><path style="opacity:.353" fill="#58473f" d="M 58.5,35.5 C 55.8333,36.1667 53.1667,36.8333 50.5,37.5C 49.3285,38.3446 47.9952,39.0113 46.5,39.5C 47.0065,38.1411 48.0065,37.1411 49.5,36.5C 52.4281,35.5159 55.4281,35.1826 58.5,35.5 Z"/></g><g><path style="opacity:1" fill="#b79748" d="M 17.5,38.5 C 11.8333,37.1667 6.16667,37.1667 0.5,38.5C 0.166667,38.5 -0.166667,38.5 -0.5,38.5C -0.5,37.8333 -0.5,37.1667 -0.5,36.5C 5.47399,35.7811 11.474,35.4478 17.5,35.5C 18.7759,36.6136 18.7759,37.6136 17.5,38.5 Z"/></g><g><path style="opacity:.994" fill="#a38438" d="M 58.5,35.5 C 59.9063,35.9731 60.573,36.9731 60.5,38.5C 57.272,37.5863 53.9387,37.2529 50.5,37.5C 53.1667,36.8333 55.8333,36.1667 58.5,35.5 Z"/></g><g><path style="opacity:.525" fill="#44331e" d="M 61.5,38.5 C 62.9473,37.1148 63.9473,37.4482 64.5,39.5C 63.609,38.8902 62.609,38.5569 61.5,38.5 Z"/></g><g><path style="opacity:1" fill="#f7da39" d="M 106.5,40.5 C 106.5,41.1667 106.833,41.5 107.5,41.5C 107.762,42.9778 107.429,44.3112 106.5,45.5C 105.614,44.675 105.281,43.675 105.5,42.5C 103.5,42.5 101.5,42.5 99.5,42.5C 97.3055,41.8767 95.1389,41.5434 93,41.5C 92.3551,42.646 91.5217,43.646 90.5,44.5C 90.6236,45.1067 90.9569,45.44 91.5,45.5C 92.2114,47.2014 93.5447,48.2014 95.5,48.5C 95.8333,48.5 96.1667,48.5 96.5,48.5C 99.887,50.3077 103.22,52.3077 106.5,54.5C 109.258,59.4732 107.925,63.1398 102.5,65.5C 100.621,66.3414 98.6208,66.6747 96.5,66.5C 95.8333,66.5 95.1667,66.5 94.5,66.5C 92.2532,66.0433 90.2532,65.0433 88.5,63.5C 87.914,63.7093 87.414,64.0426 87,64.5C 86.7216,63.5842 86.2216,62.9175 85.5,62.5C 84.6993,60.9582 84.366,59.2915 84.5,57.5C 86.7354,57.2053 88.7354,57.5386 90.5,58.5C 90.5,58.8333 90.5,59.1667 90.5,59.5C 91.4166,61.5106 93.0832,62.5106 95.5,62.5C 97.3328,62.4146 98.6661,61.7479 99.5,60.5C 100.497,60.5299 101.164,60.0299 101.5,59C 100.144,57.4329 99.4772,55.5996 99.5,53.5C 96.7552,52.3838 93.9218,51.3838 91,50.5C 88.9525,48.6118 86.7858,46.9451 84.5,45.5C 84.544,41.4457 86.544,38.779 90.5,37.5C 96.3542,36.0715 101.688,37.0715 106.5,40.5 Z"/></g><g><path style="opacity:.745" fill="#826c49" d="M 106.5,40.5 C 101.688,37.0715 96.3542,36.0715 90.5,37.5C 86.544,38.779 84.544,41.4457 84.5,45.5C 84.4326,46.9587 84.7659,48.2921 85.5,49.5C 81.7716,40.49 85.1049,35.8234 95.5,35.5C 99.2172,36.0635 102.884,36.7302 106.5,37.5C 106.5,38.5 106.5,39.5 106.5,40.5 Z"/></g><g><path style="opacity:.02" fill="#2f2317" d="M 45.5,40.5 C 44.5,41.1667 43.5,41.8333 42.5,42.5C 41.9569,42.44 41.6236,42.1067 41.5,41.5C 42.6888,40.5713 44.0222,40.238 45.5,40.5 Z"/></g><g><path style="opacity:1" fill="#cc9a1c" d="M 107.5,41.5 C 108.451,42.9187 108.784,44.5853 108.5,46.5C 105.833,46.5 103.167,46.5 100.5,46.5C 100.567,45.0413 100.234,43.7079 99.5,42.5C 101.5,42.5 103.5,42.5 105.5,42.5C 105.281,43.675 105.614,44.675 106.5,45.5C 107.429,44.3112 107.762,42.9778 107.5,41.5 Z"/></g><g><path style="opacity:.353" fill="#2e2108" d="M 42.5,43.5 C 42.1667,44.1667 41.8333,44.8333 41.5,45.5C 40.2426,44.3774 40.5759,43.7107 42.5,43.5 Z"/></g><g><path style="opacity:.894" fill="#74582f" d="M 65.5,40.5 C 68.7734,41.062 69.7734,42.7287 68.5,45.5C 67.6923,43.7798 66.6923,42.1131 65.5,40.5 Z"/></g><g><path style="opacity:.455" fill="#7a6640" d="M 95.5,48.5 C 93.5447,48.2014 92.2114,47.2014 91.5,45.5C 91.4346,45.0618 91.6012,44.7284 92,44.5C 93.3875,45.7358 94.5542,47.0692 95.5,48.5 Z"/></g><g><path style="opacity:.439" fill="#846f49" d="M 96.5,48.5 C 96.56,47.9569 96.8933,47.6236 97.5,47.5C 98.9738,49.1487 100.807,50.1487 103,50.5C 104.749,51.4098 105.916,52.7431 106.5,54.5C 103.22,52.3077 99.887,50.3077 96.5,48.5 Z"/></g><g><path style="opacity:1" fill="#f2d035" d="M 50.5,37.5 C 53.9387,37.2529 57.272,37.5863 60.5,38.5C 60.8333,38.5 61.1667,38.5 61.5,38.5C 62.609,38.5569 63.609,38.8902 64.5,39.5C 65.1667,39.5 65.5,39.8333 65.5,40.5C 66.6923,42.1131 67.6923,43.7798 68.5,45.5C 70.7957,45.8041 71.129,46.8041 69.5,48.5C 69.8296,53.1851 68.8296,57.5185 66.5,61.5C 65.6473,63.8927 63.9806,65.226 61.5,65.5C 58.6085,66.4025 55.6085,66.7359 52.5,66.5C 50.544,68.1751 49.2107,67.8418 48.5,65.5C 47.1938,64.5326 46.5271,63.1993 46.5,61.5C 45.5,61.5 44.5,61.5 43.5,61.5C 43.1356,57.2889 42.1356,53.2889 40.5,49.5C 40.685,48.4163 41.0183,47.4163 41.5,46.5C 41.5,46.1667 41.5,45.8333 41.5,45.5C 41.8333,44.8333 42.1667,44.1667 42.5,43.5C 42.5,43.1667 42.5,42.8333 42.5,42.5C 43.5,41.8333 44.5,41.1667 45.5,40.5C 45.5,39.8333 45.8333,39.5 46.5,39.5C 47.9952,39.0113 49.3285,38.3446 50.5,37.5 Z M 60.5,58.5 C 60.2249,60.7583 59.2249,61.0916 57.5,59.5C 56.3044,59.8457 56.3044,60.3457 57.5,61C 55.8659,61.4935 54.1992,61.6602 52.5,61.5C 52.5,60.1667 51.8333,59.5 50.5,59.5C 49.5546,54.5947 49.2213,49.5947 49.5,44.5C 49.8333,44.5 50.1667,44.5 50.5,44.5C 50.8333,43.8333 51.1667,43.1667 51.5,42.5C 53.0681,42.3592 54.7348,42.0258 56.5,41.5C 57.5237,42.8532 58.857,43.5198 60.5,43.5C 60.4081,48.8091 60.4081,53.8091 60.5,58.5 Z"/></g><g><path style="opacity:.816" fill="#a1700d" d="M 60.5,58.5 C 60.4081,53.8091 60.4081,48.8091 60.5,43.5C 58.857,43.5198 57.5237,42.8532 56.5,41.5C 54.7348,42.0258 53.0681,42.3592 51.5,42.5C 52.1522,41.2749 53.3189,40.6083 55,40.5C 57.239,41.0911 59.4057,41.7578 61.5,42.5C 61.8214,48.0262 61.4881,53.3595 60.5,58.5 Z"/></g><g><path style="opacity:.678" fill="#83693c" d="M 69.5,48.5 C 70.4656,52.7541 70.4656,56.9207 69.5,61C 68.552,61.4828 67.552,61.6495 66.5,61.5C 68.8296,57.5185 69.8296,53.1851 69.5,48.5 Z"/></g><g><path style="opacity:1" fill="#d59d16" d="M 84.5,45.5 C 86.7858,46.9451 88.9525,48.6118 91,50.5C 93.9218,51.3838 96.7552,52.3838 99.5,53.5C 99.4772,55.5996 100.144,57.4329 101.5,59C 101.164,60.0299 100.497,60.5299 99.5,60.5C 100.706,59.1196 100.373,57.9529 98.5,57C 93.9846,54.6452 89.6512,52.1452 85.5,49.5C 84.7659,48.2921 84.4326,46.9587 84.5,45.5 Z"/></g><g><path style="opacity:.753" fill="#886b28" d="M 49.5,44.5 C 49.2213,49.5947 49.5546,54.5947 50.5,59.5C 49.1914,57.4294 48.5248,54.9294 48.5,52C 48.5029,49.3097 48.8362,46.8097 49.5,44.5 Z"/></g><g><path style="opacity:1" fill="#ba8b20" d="M 4.5,41.5 C 5.16535,44.9841 5.49869,48.6508 5.5,52.5C 5.48885,56.5652 4.82218,60.2319 3.5,63.5C 3.83677,56.1716 4.1701,48.8382 4.5,41.5 Z"/></g><g><path style="opacity:1" fill="#b18213" d="M 41.5,46.5 C 41.0183,47.4163 40.685,48.4163 40.5,49.5C 42.1356,53.2889 43.1356,57.2889 43.5,61.5C 42.548,60.548 41.548,59.548 40.5,58.5C 40.7093,57.914 41.0426,57.414 41.5,57C 40.2799,55.4747 39.6132,53.6413 39.5,51.5C 39.5561,49.3603 40.2227,47.6936 41.5,46.5 Z"/></g><g><path style="opacity:.6" fill="#8b7446" d="M 90.5,58.5 C 88.7354,57.5386 86.7354,57.2053 84.5,57.5C 84.366,59.2915 84.6993,60.9582 85.5,62.5C 83.6921,61.0821 83.0254,59.0821 83.5,56.5C 86.2469,56.1866 88.9135,56.52 91.5,57.5C 91.3764,58.1067 91.0431,58.44 90.5,58.5 Z"/></g><g><path style="opacity:.184" fill="#251010" d="M 50.5,59.5 C 51.8333,59.5 52.5,60.1667 52.5,61.5C 51.5,61.1667 50.8333,60.5 50.5,59.5 Z"/></g><g><path style="opacity:.561" fill="#7c4f04" d="M 43.5,61.5 C 44.5,61.5 45.5,61.5 46.5,61.5C 46.5271,63.1993 47.1938,64.5326 48.5,65.5C 47.5,65.5 46.5,65.5 45.5,65.5C 45.4729,63.8007 44.8062,62.4674 43.5,61.5 Z"/></g><g><path style="opacity:.894" fill="#a6863a" d="M 90.5,59.5 C 93.3186,61.5525 96.3186,61.8858 99.5,60.5C 98.6661,61.7479 97.3328,62.4146 95.5,62.5C 93.0832,62.5106 91.4166,61.5106 90.5,59.5 Z"/></g><g><path style="opacity:1" fill="#f1cd35" d="M 0.5,38.5 C 6.16667,37.1667 11.8333,37.1667 17.5,38.5C 25.0482,41.6838 28.5482,47.3505 28,55.5C 26.4076,59.0286 25.0743,62.6953 24,66.5C 22.6012,67.2266 21.1012,67.7266 19.5,68C 13.1754,68.4995 6.84209,68.6662 0.5,68.5C 0.687013,66.4357 1.18701,64.4357 2,62.5C 2.38258,63.056 2.88258,63.3893 3.5,63.5C 4.82218,60.2319 5.48885,56.5652 5.5,52.5C 5.49869,48.6508 5.16535,44.9841 4.5,41.5C 3.5041,41.4142 2.67076,41.7476 2,42.5C 1.2917,41.6195 0.458367,40.9528 -0.5,40.5C -0.5,40.1667 -0.5,39.8333 -0.5,39.5C 1.22394,39.5393 1.55728,39.206 0.5,38.5 Z M 12.5,41.5 C 13.991,41.9014 15.6577,42.068 17.5,42C 18.1459,44.1529 19.1459,46.3196 20.5,48.5C 21.2891,48.7828 21.9558,49.2828 22.5,50C 21.1991,51.6155 21.1991,53.1155 22.5,54.5C 21.7375,55.2679 20.7375,55.7679 19.5,56C 19.6651,57.1169 19.9984,58.2836 20.5,59.5C 19.3128,60.5195 18.3128,61.6861 17.5,63C 15.925,62.621 14.425,62.7877 13,63.5C 12.2496,62.8742 11.4162,62.3742 10.5,62C 11.1841,55.1677 11.8508,48.3344 12.5,41.5 Z"/></g><g><path style="opacity:1" fill="#c59016" d="M 12.5,41.5 C 19.618,39.4226 23.2847,42.2559 23.5,50C 23.3948,51.5915 23.0614,53.0915 22.5,54.5C 21.1991,53.1155 21.1991,51.6155 22.5,50C 21.9558,49.2828 21.2891,48.7828 20.5,48.5C 19.1459,46.3196 18.1459,44.1529 17.5,42C 15.6577,42.068 13.991,41.9014 12.5,41.5 Z"/></g><g><path style="opacity:1" fill="#a07213" d="M 85.5,62.5 C 86.2216,62.9175 86.7216,63.5842 87,64.5C 87.414,64.0426 87.914,63.7093 88.5,63.5C 90.2532,65.0433 92.2532,66.0433 94.5,66.5C 93.0976,66.7362 91.5976,67.0695 90,67.5C 88.6998,66.2927 87.1998,65.6261 85.5,65.5C 85.5,64.5 85.5,63.5 85.5,62.5 Z"/></g><g><path style="opacity:.259" fill="#2f210f" d="M 61.5,65.5 C 60.4855,66.7647 58.9855,67.4313 57,67.5C 55.2933,67.4915 53.7933,67.1582 52.5,66.5C 55.6085,66.7359 58.6085,66.4025 61.5,65.5 Z"/></g><g><path style="opacity:.161" fill="#563c1b" d="M 102.5,65.5 C 102.03,66.6935 101.03,67.3601 99.5,67.5C 98.2739,67.4805 97.2739,67.1471 96.5,66.5C 98.6208,66.6747 100.621,66.3414 102.5,65.5 Z"/></g><g><path style="opacity:.896" fill="#434260" d="M 176.5,95.5 C 176.5,120.5 176.5,145.5 176.5,170.5C 174.167,173.5 171.5,176.167 168.5,178.5C 142.167,178.5 115.833,178.5 89.5,178.5C 88.024,176.5 86.1906,174.833 84,173.5C 83.2086,172.255 82.7086,170.922 82.5,169.5C 81.8755,152.693 81.2088,136.026 80.5,119.5C 80.3335,108.162 80.5001,96.8284 81,85.5C 82.243,79.9173 85.4097,75.7506 90.5,73C 111.5,72.3333 132.5,72.3333 153.5,73C 161.505,80.1984 169.171,87.6984 176.5,95.5 Z M 128.5,169.5 C 137.503,161.162 141.17,150.829 139.5,138.5C 141.167,138.5 142.833,138.5 144.5,138.5C 144.5,134.5 144.5,130.5 144.5,126.5C 146.31,129.145 147.31,132.145 147.5,135.5C 149.144,135.714 150.644,135.38 152,134.5C 153.53,130.91 154.864,127.243 156,123.5C 156.499,128.489 156.666,133.489 156.5,138.5C 158.288,138.785 159.955,138.452 161.5,137.5C 160.531,129.556 160.198,121.556 160.5,113.5C 158.533,113.261 156.699,113.594 155,114.5C 153.136,119.091 151.47,123.757 150,128.5C 148.53,123.757 146.864,119.091 145,114.5C 143.301,113.594 141.467,113.261 139.5,113.5C 139.5,120.833 139.5,128.167 139.5,135.5C 137.385,128.612 133.718,122.612 128.5,117.5C 130.044,117.703 131.378,118.37 132.5,119.5C 134.762,118.655 135.429,117.322 134.5,115.5C 131.15,112.762 127.483,112.096 123.5,113.5C 112.835,107.932 101.835,107.265 90.5,111.5C 90.3336,102.494 90.5002,93.4938 91,84.5C 91.8333,83.6667 92.6667,82.8333 93.5,82C 112.5,81.3333 131.5,81.3333 150.5,82C 156.5,88 162.5,94 168.5,100C 167.672,122.427 167.172,144.927 167,167.5C 166.25,168.126 165.416,168.626 164.5,169C 152.505,169.5 140.505,169.667 128.5,169.5 Z"/></g><g><path style="opacity:.231" fill="#654e27" d="M 66.5,75.5 C 67.7082,74.218 69.0416,74.218 70.5,75.5C 70.3764,76.1067 70.0431,76.44 69.5,76.5C 68.791,75.596 67.791,75.2627 66.5,75.5 Z"/></g><g><path style="opacity:.541" fill="#8b6716" d="M 41.5,75.5 C 40.6618,75.8417 40.3284,76.5084 40.5,77.5C 39.2241,76.6136 39.2241,75.6136 40.5,74.5C 41.1067,74.6236 41.44,74.9569 41.5,75.5 Z"/></g><g><path style="opacity:1" fill="#f0d53c" d="M 50.5,79.5 C 50.6329,82.3662 51.9662,84.3662 54.5,85.5C 54.5,85.8333 54.5,86.1667 54.5,86.5C 54.44,87.0431 54.1067,87.3764 53.5,87.5C 49.5263,85.2279 46.1929,82.2279 43.5,78.5C 42.675,77.6143 41.675,77.281 40.5,77.5C 40.3284,76.5084 40.6618,75.8417 41.5,75.5C 46.0937,73.5777 49.0937,74.9111 50.5,79.5 Z"/></g><g><path style="opacity:.525" fill="#8b7343" d="M 50.5,79.5 C 52.1205,81.2641 53.4538,83.2641 54.5,85.5C 51.9662,84.3662 50.6329,82.3662 50.5,79.5 Z"/></g><g><path style="opacity:1" fill="#f4d23a" d="M 66.5,75.5 C 67.791,75.2627 68.791,75.596 69.5,76.5C 69.5,77.5 69.5,78.5 69.5,79.5C 67.39,80.4525 66.2233,82.1192 66,84.5C 64.6976,85.0848 63.531,85.7515 62.5,86.5C 62.5,86.8333 62.5,87.1667 62.5,87.5C 61.4489,88.2223 60.7822,89.2223 60.5,90.5C 60.1667,90.5 59.8333,90.5 59.5,90.5C 57.4714,92.4998 55.1381,92.8332 52.5,91.5C 54.6382,90.2557 56.6382,88.7557 58.5,87C 56.273,86.296 55.9397,85.1294 57.5,83.5C 58.8136,80.8564 60.1469,78.1897 61.5,75.5C 63.1673,74.3336 64.834,74.3336 66.5,75.5 Z"/></g><g><path style="opacity:.278" fill="#786346" d="M 69.5,79.5 C 69.9382,79.4346 70.2716,79.6012 70.5,80C 68.5125,81.3189 67.3459,83.1523 67,85.5C 65.6439,86.3802 64.1439,86.7135 62.5,86.5C 63.531,85.7515 64.6976,85.0848 66,84.5C 66.2233,82.1192 67.39,80.4525 69.5,79.5 Z"/></g><g><path style="opacity:1" fill="#deae29" d="M 40.5,77.5 C 41.675,77.281 42.675,77.6143 43.5,78.5C 46.1929,82.2279 49.5263,85.2279 53.5,87.5C 54.1067,87.3764 54.44,87.0431 54.5,86.5C 55.1001,85.0998 56.1001,84.0998 57.5,83.5C 55.9397,85.1294 56.273,86.296 58.5,87C 56.6382,88.7557 54.6382,90.2557 52.5,91.5C 55.1381,92.8332 57.4714,92.4998 59.5,90.5C 60.759,91.9791 61.759,93.6458 62.5,95.5C 61.5178,94.8592 60.5178,94.1925 59.5,93.5C 58.8005,95.6117 59.3005,97.6117 61,99.5C 61.4974,102.146 61.6641,104.813 61.5,107.5C 60.6618,107.158 60.3284,106.492 60.5,105.5C 60.0658,101.582 58.2324,98.5818 55,96.5C 53.1739,97.0104 53.0072,97.8438 54.5,99C 53.9056,99.4643 53.2389,99.631 52.5,99.5C 52.5023,97.1691 51.669,95.1691 50,93.5C 49.9428,95.9102 48.7761,97.2435 46.5,97.5C 48.0995,96.3181 48.4328,94.9847 47.5,93.5C 48.9079,92.7568 50.2412,91.9234 51.5,91C 46.8357,87.1833 43.169,82.6833 40.5,77.5 Z"/></g><g><path style="opacity:.541" fill="#7a6845" d="M 62.5,87.5 C 63.0431,87.56 63.3764,87.8933 63.5,88.5C 62.4783,89.354 61.6449,90.354 61,91.5C 60.6012,91.2716 60.4346,90.9382 60.5,90.5C 60.7822,89.2223 61.4489,88.2223 62.5,87.5 Z"/></g><g><path style="opacity:1" fill="#f1d236" d="M 62.5,95.5 C 64.5608,97.3807 66.8941,99.0474 69.5,100.5C 69.1373,101.183 68.8039,101.85 68.5,102.5C 69.3007,104.042 69.634,105.708 69.5,107.5C 66.8333,107.5 64.1667,107.5 61.5,107.5C 61.6641,104.813 61.4974,102.146 61,99.5C 59.3005,97.6117 58.8005,95.6117 59.5,93.5C 60.5178,94.1925 61.5178,94.8592 62.5,95.5 Z"/></g><g><path style="opacity:1" fill="#edcc33" d="M 52.5,99.5 C 51.4538,101.466 50.4538,103.466 49.5,105.5C 47.0122,107.388 44.0122,108.055 40.5,107.5C 39.2121,105.965 39.2121,104.299 40.5,102.5C 42.2969,100.551 44.2969,98.8842 46.5,97.5C 48.7761,97.2435 49.9428,95.9102 50,93.5C 51.669,95.1691 52.5023,97.1691 52.5,99.5 Z"/></g><g><path style="opacity:.443" fill="#965a1d" d="M 49.5,105.5 C 50.404,106.209 50.7373,107.209 50.5,108.5C 46.9581,108.813 43.6248,108.479 40.5,107.5C 44.0122,108.055 47.0122,107.388 49.5,105.5 Z"/></g><g><path style="opacity:.263" fill="#9e6327" d="M 68.5,102.5 C 70.3079,103.918 70.9746,105.918 70.5,108.5C 66.8333,108.5 63.1667,108.5 59.5,108.5C 59.2627,107.209 59.596,106.209 60.5,105.5C 60.3284,106.492 60.6618,107.158 61.5,107.5C 64.1667,107.5 66.8333,107.5 69.5,107.5C 69.634,105.708 69.3007,104.042 68.5,102.5 Z"/></g><g><path style="opacity:.985" fill="#cce3f0" d="M 123.5,113.5 C 118.345,121.044 120.345,125.877 129.5,128C 132.487,131.864 131.487,134.031 126.5,134.5C 124.519,134.563 122.852,133.896 121.5,132.5C 119.646,133.176 119.313,134.176 120.5,135.5C 125.904,138.66 130.737,137.993 135,133.5C 135.966,127.117 133.132,123.617 126.5,123C 122.205,119.42 122.872,117.587 128.5,117.5C 133.718,122.612 137.385,128.612 139.5,135.5C 139.5,136.5 139.5,137.5 139.5,138.5C 141.17,150.829 137.503,161.162 128.5,169.5C 116.576,170.645 104.576,170.811 92.5,170C 92,169.5 91.5,169 91,168.5C 89.8573,158.762 89.3573,148.928 89.5,139C 89.5002,129.66 89.8335,120.494 90.5,111.5C 101.835,107.265 112.835,107.932 123.5,113.5 Z"/></g><g><path style="opacity:.747" fill="#d81d05" d="M 144.5,126.5 C 144.5,130.5 144.5,134.5 144.5,138.5C 142.833,138.5 141.167,138.5 139.5,138.5C 139.5,137.5 139.5,136.5 139.5,135.5C 139.5,128.167 139.5,120.833 139.5,113.5C 141.467,113.261 143.301,113.594 145,114.5C 146.864,119.091 148.53,123.757 150,128.5C 151.47,123.757 153.136,119.091 155,114.5C 156.699,113.594 158.533,113.261 160.5,113.5C 160.198,121.556 160.531,129.556 161.5,137.5C 159.955,138.452 158.288,138.785 156.5,138.5C 156.666,133.489 156.499,128.489 156,123.5C 154.864,127.243 153.53,130.91 152,134.5C 150.644,135.38 149.144,135.714 147.5,135.5C 147.31,132.145 146.31,129.145 144.5,126.5 Z"/></g><g><path style="opacity:.925" fill="#c9e1ef" d="M 80.5,119.5 C 81.2088,136.026 81.8755,152.693 82.5,169.5C 70.2222,158.438 67.0556,145.105 73,129.5C 74.9789,125.7 77.4789,122.366 80.5,119.5 Z"/></g><g><path style="opacity:1" fill="#d8311b" d="M 105.5,114.5 C 107.167,114.5 108.833,114.5 110.5,114.5C 112.519,121.903 114.853,129.236 117.5,136.5C 116.311,137.429 114.978,137.762 113.5,137.5C 113.352,131.006 110.019,128.673 103.5,130.5C 103.313,132.564 102.813,134.564 102,136.5C 100.989,137.337 99.8221,137.67 98.5,137.5C 100.234,129.633 102.567,121.966 105.5,114.5 Z"/></g><g><path style="opacity:1" fill="#cedbe6" d="M 107.5,117.5 C 108.49,120.739 109.49,124.072 110.5,127.5C 108.396,127.799 106.396,127.466 104.5,126.5C 105.877,123.596 106.877,120.596 107.5,117.5 Z"/></g><g><path style="opacity:1" fill="#d82812" d="M 128.5,117.5 C 122.872,117.587 122.205,119.42 126.5,123C 133.132,123.617 135.966,127.117 135,133.5C 130.737,137.993 125.904,138.66 120.5,135.5C 119.313,134.176 119.646,133.176 121.5,132.5C 122.852,133.896 124.519,134.563 126.5,134.5C 131.487,134.031 132.487,131.864 129.5,128C 120.345,125.877 118.345,121.044 123.5,113.5C 127.483,112.096 131.15,112.762 134.5,115.5C 135.429,117.322 134.762,118.655 132.5,119.5C 131.378,118.37 130.044,117.703 128.5,117.5 Z"/></g></svg>