<?xml version="1.0" encoding="iso-8859-1"?>
<!-- Generator: Adobe Illustrator 23.0.0, SVG Export Plug-In . SVG Version: 6.00 Build 0)  -->
<svg version="1.1" id="&#x56FE;&#x5C42;_1" xmlns="http://www.w3.org/2000/svg" xmlns:xlink="http://www.w3.org/1999/xlink" x="0px"
	 y="0px" viewBox="0 0 750 960" style="enable-background:new 0 0 750 960;" xml:space="preserve">
<g>
	<path style="fill:#91A5C1;" d="M98.548,485.142c0,0-14.828-43.247-17.299-49.425c-2.471-6.178-21.006-23.477-42.012-17.299
		s-38.305,29.655-28.42,53.132c9.885,23.477,30.891,40.776,33.362,54.368c2.471,13.592,7.414,42.012,18.535,45.718
		s44.483-12.356,48.19-30.891C114.611,522.211,98.548,485.142,98.548,485.142z"/>
	<path style="fill:#91A5C1;" d="M117.704,643.123c0,0-14.213,5.122-25.334,0.18c-11.121-4.943-45.718-25.948-58.075-16.063
		c-12.356,9.885-22.241,49.425-2.471,77.845c7.414,11.121,87.73,19.77,98.851,23.477s32.311-19.157,29.747-36.762
		S117.704,643.123,117.704,643.123z"/>
	<path style="fill:#B3CBF2;" d="M106.406,478.758c0,0-14.828-43.247-17.299-49.425c-2.471-6.178-21.006-23.477-42.012-17.299
		c-21.006,6.178-38.305,29.655-28.42,53.132c9.885,23.477,30.891,40.776,33.362,54.368c2.471,13.592,7.414,42.012,18.535,45.718
		s44.483-12.356,48.19-30.891C122.469,515.827,106.406,478.758,106.406,478.758z"/>
	<path style="fill:#B3CBF2;" d="M125.562,636.739c0,0-14.213,5.122-25.334,0.18c-11.121-4.943-45.718-25.948-58.075-16.063
		s-22.241,49.425-2.471,77.845c7.414,11.121,87.73,19.77,98.851,23.477c11.121,3.707,32.311-19.157,29.747-36.762
		S125.562,636.739,125.562,636.739z"/>
	<path style="fill:#D9E6FF;" d="M378.886,476.874c0,0-101.963-56.191-106.906-58.662c-4.943-2.471-165.575,55.603-165.575,55.603
		s-23.477,29.655-14.828,45.718s18.535,22.241,27.184,19.77s128.506-42.012,128.506-42.012l101.322,38.305l53.26-5.433
		L378.886,476.874z"/>
	<path style="opacity:0.8;fill:#94A4C4;" d="M323.788,526.22l38.401,3.2h11.295v-6.875c0,0-76.119-17.188-87.905-21.608
		c-11.786-4.42-35.187-13.115-35.027-15.397c0.16-2.282-4.751,0.173-4.751,0.173l1.665,11.654L323.788,526.22z"/>
	<path style="fill:#94A4C4;" d="M98.469,523.348c-3.544-3.352-5.776-4.463-7.161-4.353c0.088,0.181,0.174,0.361,0.27,0.539
		c8.649,16.063,18.535,22.241,27.184,19.77c7.708-2.202,103.739-33.845,124.546-40.705l2.494-12.885
		c0,0-46.162,17.679-69.243,24.063C153.477,516.161,110.741,534.954,98.469,523.348z"/>
	<path style="fill:#D9E6FF;" d="M411.607,524.476c0,0-128.506-12.356-140.862-7.414c-12.356,4.943-151.983,121.092-151.983,121.092
		s1.236,38.305,39.54,53.132c25.948-13.592,134.684-93.908,134.684-93.908s151.983,19.77,170.517,17.299
		c18.535-2.471,38.305-32.126,38.305-32.126l-9.885-22.241L411.607,524.476z"/>
	<path style="opacity:0.8;fill:#94A4C4;" d="M292.222,597.943L272.32,574.11c0,0-29.956,51.073-52.546,65.806
		c-22.59,14.733-71.384,44.445-81.118,39.411h0c5.121,4.646,11.554,8.828,19.647,11.961
		C182.979,678.361,282.522,605.094,292.222,597.943z"/>
	<path style="opacity:0.8;fill:#94A4C4;" d="M463.844,600.628c0,0-113.441-4.911-140.451-11.295
		c-27.01-6.384-41.199-13.161-48.837-17.384c-5.645-3.122,7.904,16.987,15.358,27.693c1.982-1.459,3.072-2.263,3.072-2.263
		s151.983,19.77,170.517,17.299c3.107-0.414,6.247-1.595,9.324-3.269L463.844,600.628z"/>
	<path style="fill:#AEC3E5;" d="M599.804,385.509c0,0,30.51,16.64,32.982,24.054c4.943-7.414,22.83-12.829,31.914-14.7
		c-2.455-11.786-49.213-48.317-61.569-52.024c-12.356-3.707-21.672,14.569-21.672,14.569L599.804,385.509z"/>
	<path style="fill:#718DB5;" d="M663.901,403.128c-12.256,25.252-40.774,81.3-48.415,87.986c-9.885,8.649-2.471-97.845-2.471-97.845
		l17.299-4.713l29.922,1.87C660.236,390.427,668.628,393.389,663.901,403.128z"/>
	<path style="fill:#D9E6FF;" d="M479.783,342.884c0,0-10.102-4.989-22.458-0.046c-12.356,4.943-65.489,33.362-65.489,33.362
		s-84.143-51.056-86.614-53.528c-2.471-2.471-12.886-4.246-20.3,8.11c-7.414,12.356-6.219,22.828-6.219,22.828
		s9.34,17.647,34.052,37.417c24.713,19.77,54.368,43.247,66.724,43.247c12.356,0,33.362-8.649,33.362-8.649l-32.974,55.177
		c0,0,7.026,43.673,36.681,63.443c29.655,19.77,63.017,25.948,63.017,25.948l85.259-38.305l52.729-113.946
		c0,0,4.42-27.01-15.66-40.508C570.588,356.391,479.783,342.884,479.783,342.884z"/>
	<path style="fill:#94A4C4;" d="M491.153,564.989l48.644-21.854c10.999-13.231,26.193-31.791,26.193-33.358
		c0-2.455,9.371-94.459,9.371-94.459s-25.086,79.727-37.854,85.62c-12.768,5.893-37.814,44.689-58.439,38.796
		c-20.626-5.893-55.984-6.384-68.752-15.224c-12.768-8.84,26.028,21.608,26.028,21.608L491.153,564.989z"/>
	<path style="fill:#718DB5;" d="M606.501,381.151c-4.078,0.652-11.482,2.043-19.497,4.558
		c-16.625,5.218-27.329,12.531-31.813,21.735c-0.598,1.227-1.335,2.722-2.187,4.45c-6.05,12.27-18.639,37.802-27.558,61.609
		c-15.73,41.987-10.52,53.309-5.233,58.173c6.537,6.014,12.539,9.886,17.53,12.382l12.57-5.647
		c-4.749-1.092-13.553-4.858-23.45-13.962c-1.747-1.608-6.35-9.783,7.78-47.499c8.747-23.348,21.19-48.583,27.17-60.711
		c0.86-1.744,1.604-3.253,2.207-4.492c6.675-13.702,36.12-20.029,46.903-21.311c0.745-0.088,1.428-0.344,2.025-0.718
		C611.341,386.704,609.238,383.783,606.501,381.151z"/>
	<path style="fill:#718DB5;" d="M484.629,343.649c-3.095-0.504-4.845-0.765-4.845-0.765s-1.747-0.86-4.671-1.512
		c-0.003,0.009-0.007,0.018-0.01,0.028c-0.069,0.217-7.006,21.966-17.986,45.453c-14.225,30.427-28.577,49.789-41.504,55.993
		c-4.847,2.327-9.375,2.739-13.811,1.256l-5.084,8.507c0.235,0.14,0.482,0.267,0.747,0.369c3.148,1.217,6.349,1.824,9.585,1.824
		c4.223,0,8.507-1.035,12.813-3.102c15.21-7.3,30.737-27.719,46.151-60.688c11.25-24.062,18.162-45.734,18.451-46.645
		C484.54,344.129,484.591,343.889,484.629,343.649z"/>
	<path style="opacity:0.8;fill:#94A4C4;" d="M381.021,434.232l-1.153-13.833c0,0-5.893,3.438-13.75,0s-80.047-58.931-80.047-58.931
		s-5.402-7.857-4.911-12.768c0.3-2.998,0.747,1.183-0.491,7.857c0.023,0.839,0.491,1.964,0.491,1.964s6.884,12.736,31.597,32.506
		c24.713,19.77,54.368,43.247,66.724,43.247C379.98,434.275,380.495,434.259,381.021,434.232z"/>
	<path style="opacity:0.8;fill:#94A4C4;" d="M412.771,425.801l5.893-8.349c0,0-29.465,11.295-38.796,2.947
		c-0.241,6.758,0.229,11.139,0.77,13.852c12.464-0.497,32.204-8.625,32.204-8.625l-0.444,0.405L412.771,425.801z"/>
	<path style="fill:#DB6445;" d="M383.492,474.861c0,0,6.553,21.1,26.333,40.809c19.466,19.396,58.519,40.565,91.833,41.742
		c33.503,1.184-18.17,11.295-18.17,11.295s-69.385-22.907-84.803-42.767c-16.361-21.075-18.326-28.932-20.781-45.629
		C377.413,477.856,379.749,474.322,383.492,474.861z"/>
	<g>
		<path style="fill:#718DB5;" d="M696.5,436.138c-8.686,0-18.391-1.642-29.031-4.923c-12.951-3.993-22.504-9-22.904-9.211
			c-3.598-1.898-4.976-6.354-3.078-9.952c1.898-3.598,6.354-4.977,9.952-3.078c0.26,0.136,9.05,4.7,20.63,8.243
			c14.749,4.512,27.373,5.384,36.508,2.518c6.736-2.113,11.61-6.219,14.901-12.553c11.606-22.341,7.114-48.614-1.97-63.57
			c-8.211-13.518-17.578-15.537-22.431-15.537c-16.188,0-41.734-2.203-71.508-12.696c-35.643-12.562-67.894-33.669-95.859-62.735
			c-11.44-11.89-22.987-19.791-34.32-23.484c-9.486-3.091-18.882-3.231-27.927-0.417c-24.182,7.525-40.817,34.411-43.528,50.926
			c-2.134,13.002,10.919,24.489,22.246,31.836c13.637,8.846,28.25,13.981,28.396,14.032c3.84,1.337,5.873,5.534,4.538,9.375
			c-1.335,3.841-5.527,5.874-9.37,4.543c-0.656-0.228-16.235-5.682-31.354-15.442c-27.401-17.689-30.892-35.176-28.994-46.731
			c1.847-11.252,8.121-24.607,16.782-35.724c7.224-9.272,19.491-21.463,36.907-26.882c17.743-5.522,45.546-5.188,77.241,27.754
			c26.357,27.395,56.685,47.264,90.14,59.055c27.809,9.801,51.572,11.858,66.611,11.858c13.526,0,26.291,8.245,35.023,22.621
			c6.355,10.462,10.246,23.617,10.956,37.039c0.773,14.607-2.168,28.775-8.503,40.971c-5.123,9.862-13.064,16.534-23.6,19.829
			C707.971,435.36,702.476,436.138,696.5,436.138z"/>
	</g>
	<circle style="fill:#CED9ED;" cx="547.527" cy="302.062" r="79.081"/>
	<linearGradient id="SVGID_1_" gradientUnits="userSpaceOnUse" x1="474.1572" y1="314.3395" x2="600.3668" y2="314.3395">
		<stop  offset="0" style="stop-color:#0C002F"/>
		<stop  offset="0.999" style="stop-color:#0A1159"/>
	</linearGradient>
	<ellipse style="fill:url(#SVGID_1_);" cx="537.262" cy="314.339" rx="63.105" ry="66.803"/>
	<path style="fill:#DB6445;" d="M605.495,355.845c-14.442,15.558-35.066,25.298-57.968,25.298c-32.962,0-61.21-20.169-73.086-48.838
		c-3.98,1.471-9.695,6.586,3.645,24.253c19.644,36.341,69.671,34.376,79.556,34.376s55.493-9.822,55.493-22.099
		C613.135,357.457,609.003,355.477,605.495,355.845z"/>
	<path style="fill:#D9E6FF;" d="M292.66,319.239c0,0-11.547-27.722-21.441-32.064c-9.894-4.343-3.781,13.391,2.539,21.053
		c-8.905-5.208-26.757-31.1-36.622-29.456s14.56,27.609,20.407,30.447c-12.641-2.329-33.551-17.596-36.903-14.859
		c-3.352,2.737-7.621,14.809,31.439,24.873c-12.862-1.747-32.282-7.07-32.68-3.424c-0.399,3.646-2.408,12.384,29.298,13.169
		c-7.236,1.673-25.77,7.018-25.342,9.359c0.428,2.341,3.042,5.874,26.552,2.189c5.095-0.382,10.78,2.016,12.257,2.47
		c1.477,0.454,18.769,3.564,18.769,3.564L292.66,319.239z"/>
	<path style="fill:#EEF3FF;" d="M450.717,603.92c0,0-15.526,0.905-25.726,2.717c-4.267,0.758-23.823,4.859-22.374,14.281
		c0.952,6.189,19.686,2.487,19.686,2.487l-33.967,14.65c0,0-5.988,2.403-4.909,7.218c0.866,3.863,8.717,1.35,8.717,1.35l24.992-8.74
		l-30.829,15.993c0,0-4.52,3.517-2.096,7.18c2.424,3.663,7.609,1.549,7.609,1.549l32.695-15.507l-26.297,18.312
		c0,0-4.461,4.005-1.003,8.037s9.21-0.643,9.21-0.643l25.007-17.177l-21.675,21.937c0,0-2.856,3.808-0.017,6.23
		c3.445,2.938,6.682-0.518,6.682-0.518l25.323-19.792c0,0,20.924-17.282,25.385-21.287c4.461-4.005,8.43-13.286,8.43-13.286
		L450.717,603.92z"/>
	<path style="fill:#EEF3FF;" d="M451.797,588.112c-4.943,2.471-7.414,16.063,4.943,29.655s27.184,18.534,37.069,13.592
		c9.885-4.943,96.966-72.285,101.908-77.227c4.943-4.943,18.756-33.996,21.228-47.588c2.471-13.592,31.669-105.639-3.707-112.443
		c-32.127-6.178-39.54,17.299-39.54,17.299l-31.113,100.72L451.797,588.112z"/>
	<path style="opacity:0.5;fill:#94A4C4;" d="M602.339,543.629l-9.26-0.039c0,0-16.775,19.225-40.839,38.377
		c-24.063,19.152-60.59,45.829-70.073,44.523c1.401,2.788,4.507,4.778,7.993,6.191c1.275-0.31,2.496-0.746,3.648-1.322
		c9.885-4.943,96.966-72.285,101.908-77.227C597.262,552.586,599.676,548.681,602.339,543.629z"/>
	<path style="opacity:0.5;fill:#94A4C4;" d="M616.944,506.544c1.676-9.216,15.639-54.504,13.427-84.829
		c-2.584,11.024-25.639,108.214-37.292,116.31c2.865,2.601,6.136,4.367,9.281,5.565
		C608.207,532.489,615.248,515.874,616.944,506.544z"/>
	<path style="fill:#DB6445;" d="M394.385,374.841c0,0-7.15,3.815-9.605,16.093c-2.455,12.277-2.524,40.067-1.508,43.114
		c1.017,3.048-5.784,2.845-6.067,0s-4.082-55.793,12.059-59.767C392.637,373.746,396.624,373.481,394.385,374.841z"/>
	<path style="fill:#DB6445;" d="M543.327,509.823c0,0,14.806,18.616,35.923,24.509c21.117,5.893,26.709,6.516,26.709,6.516
		s3.237,5.628-3.633,5.449c-6.87-0.179-32.898-3.617-48.122-13.438c-15.224-9.822-14.262-18.488-14.262-18.488
		S538.343,510.359,543.327,509.823z"/>
	<path style="fill:#DB6445;" d="M278.667,421.253c0,0-17.151-0.854-21.08,12.897c-3.929,13.75-8.853,47.244-6.391,64.628
		c-1.951,4.32-8.433,0-8.433,0s-1.798-52.82,6.966-66.592c6.875-10.804,9.261-10.615,10.804-11.295
		C262.077,420.211,273.229,413.758,278.667,421.253z"/>
	<path style="fill:#DB6445;" d="M273.468,516.444c0,0-13.425,15.923-9.005,32.62c4.42,16.697,17.17,36.735,32.403,48.815
		c5.912,4.026-5.242,6.838-9.737,3.812c-4.495-3.026-29.54-30.527-31.505-51.644c-1.964-21.117,5.017-26.342,5.017-26.342
		S270.687,512.308,273.468,516.444z"/>
	<path style="fill:#DB6445;" d="M450.183,589.42c0,0,1.138,14.891,13.416,25.204c12.277,10.313,27.992,16.206,30.447,16.697
		s-0.982,3.929-7.857,2.947c-6.875-0.982-18.661-1.473-27.992-12.768C448.866,610.205,440.696,594.173,450.183,589.42z"/>
	<path style="fill:#DB6445;" d="M281.16,358.522c0,0-5.402-4.42-5.402-9.822s-1.233-14.121,9.331-27.501
		c7.366-9.331,17.188-5.402,17.188-5.402s3.438,1.473,1.327,5.662c-5.747,2.687-9.676,2.687-11.64,6.125
		C283.615,340.843,282.867,348.582,281.16,358.522z"/>
	<path style="fill:#DB6445;" d="M110.698,472.267c0,0-16.152,31.126-15.661,38.983c0.491,7.857,9.822,21.117,23.572,28.483
		c3.438,1.964-3.438,3.929-9.331,0.982c-5.893-2.947-21.117-14.733-22.099-27.992c-0.982-13.259,16.995-40.456,16.995-40.456
		S108.679,468.152,110.698,472.267z"/>
	<path style="fill:#DB6445;" d="M120.789,636.471c0,0-4.868-2.108-5.242,2.387c-0.374,4.495,1.099,28.067,13.867,40.836
		c12.768,12.768,29.956,15.715,29.956,15.715s4.515-2.455,1.275-5.402s-17.972-7.857-25.83-18.17S121.494,648.741,120.789,636.471z"
		/>
	<g>
		<path style="fill:#94A4C4;" d="M412.77,428.257c-0.537,0-1.077-0.175-1.529-0.535c-1.06-0.845-1.235-2.39-0.389-3.451
			c1.192-1.496,29.313-36.703,38.838-43.22c1.119-0.766,2.647-0.48,3.413,0.64c0.766,1.119,0.479,2.647-0.64,3.413
			c-8.924,6.106-37.484,41.868-37.772,42.229C414.206,427.94,413.491,428.257,412.77,428.257z"/>
	</g>
	
		<ellipse transform="matrix(0.7071 -0.7071 0.7071 0.7071 -330.3 505.0062)" style="fill:#DB6445;" cx="444.446" cy="651.211" rx="2.947" ry="1.719"/>
	
		<ellipse transform="matrix(0.823 -0.568 0.568 0.823 -288.6425 362.318)" style="fill:#DB6445;" cx="437.08" cy="644.335" rx="2.947" ry="1.719"/>
	
		<ellipse transform="matrix(0.866 -0.5 0.5 0.866 -260.848 300.4401)" style="fill:#DB6445;" cx="430.205" cy="636.969" rx="2.947" ry="1.719"/>
	
		<ellipse transform="matrix(0.9508 -0.3097 0.3097 0.9508 -173.482 162.5876)" style="fill:#DB6445;" cx="425.294" cy="627.638" rx="2.947" ry="1.719"/>
	<g>
		<path style="fill:#FFFFFF;" d="M495.384,294.682c-0.507,0-1.023-0.098-1.521-0.304c-2.03-0.841-2.993-3.167-2.152-5.197
			c5.143-12.414,14.634-21.595,27.448-26.55c9.581-3.705,17.652-3.748,17.991-3.748c2.197,0,3.978,1.781,3.978,3.978
			c0,2.194-1.776,3.973-3.969,3.978c-0.109,0.001-7.173,0.08-15.389,3.313c-10.754,4.232-18.394,11.659-22.709,22.074
			C498.425,293.757,496.945,294.682,495.384,294.682z"/>
	</g>
	<circle style="fill:#FFFFFF;" cx="492.999" cy="308.602" r="3.978"/>
	<g>
		<path style="fill:#94A4C4;" d="M467.476,419.917l53.65,36.712c1.747,1.196,2.176,3.59,0.953,5.318l-26.128,36.914
			c-1.307,1.846-3.929,2.145-5.617,0.639l-49.851-44.452c-1.48-1.32-1.693-3.558-0.487-5.133l22.33-29.174
			C463.55,419.142,465.813,418.779,467.476,419.917z"/>
		<path style="fill:#D9E6FF;" d="M468.158,421.995l50.869,34.809c1.657,1.134,2.064,3.404,0.904,5.043l-24.774,35.001
			c-1.239,1.75-3.725,2.033-5.326,0.606l-47.267-42.148c-1.404-1.252-1.605-3.374-0.462-4.867l21.172-27.662
			C464.435,421.259,466.581,420.916,468.158,421.995z"/>
		<circle style="fill:#94A4C4;" cx="489.902" cy="489.561" r="2.38"/>
		<circle style="fill:#94A4C4;" cx="484.609" cy="484.768" r="2.38"/>
		<circle style="fill:#94A4C4;" cx="479.316" cy="479.975" r="2.38"/>
		<g>
			<path style="fill:#94A4C4;" d="M495.738,452.334c-0.396-0.037-0.789-0.173-1.139-0.417l-30.09-20.954
				c-1.079-0.751-1.344-2.235-0.593-3.314c0.751-1.078,2.235-1.343,3.314-0.593l30.09,20.954c1.079,0.751,1.344,2.235,0.593,3.314
				C497.406,452.053,496.564,452.411,495.738,452.334z"/>
		</g>
		<g>
			<path style="fill:#94A4C4;" d="M485.046,454.212c-0.426-0.039-0.847-0.195-1.214-0.472l-22.339-16.89
				c-1.048-0.793-1.256-2.285-0.463-3.334c0.793-1.048,2.285-1.257,3.334-0.463l22.339,16.89c1.048,0.793,1.256,2.285,0.463,3.334
				C486.651,453.959,485.84,454.286,485.046,454.212z"/>
		</g>
	</g>
</g>
</svg>
