<?xml version="1.0" encoding="iso-8859-1"?>
<!-- Generator: Adobe Illustrator 23.0.0, SVG Export Plug-In . SVG Version: 6.00 Build 0)  -->
<svg version="1.1" id="&#x56FE;&#x5C42;_1" xmlns="http://www.w3.org/2000/svg" xmlns:xlink="http://www.w3.org/1999/xlink" x="0px"
	 y="0px" viewBox="0 0 500 500" style="enable-background:new 0 0 500 500;" xml:space="preserve">
<g>
	<path style="fill:#FEFFFD;" d="M5.807,293.284l40.954,104.66c4.215,10.771,17.354,14.821,26.901,8.291L479,129c0,0,23-17,14-32
		s-36,0-36,0l-73.18,3.081c-14.249,0.6-28.029,5.263-39.715,13.438L89,292l-40.778-31.368c-6.584-5.064-15.779-4.961-22.248,0.249
		l-14.702,11.843C5.158,277.65,2.946,285.973,5.807,293.284z"/>
	<path style="fill:#8D5E83;" d="M134.573,285.926c3.754,0,7.535-1.109,10.796-3.416l160.77-113.736
		c4.396-3.11,7.25-7.964,7.83-13.318c0.58-5.354-1.168-10.707-4.797-14.687l-1.563-1.715l-4.957,3.469l2.087,2.289
		c2.47,2.709,3.66,6.354,3.266,9.998s-2.338,6.948-5.33,9.065l-160.77,113.736c-5.646,3.992-13.577,2.717-17.683-2.847l-3.605-4.885
		l-4.918,3.441l3.695,5.006C123.054,283.286,128.781,285.926,134.573,285.926z"/>
	<path style="fill:#C695C9;" d="M73.662,406.236L479,129c0,0,22.409-16.578,14.3-31.438L50.714,404.043
		C56.593,409.986,66.219,411.327,73.662,406.236z"/>
	<linearGradient id="SVGID_1_" gradientUnits="userSpaceOnUse" x1="254.1194" y1="237.0518" x2="277.3611" y2="270.6671">
		<stop  offset="0" style="stop-color:#C695C9"/>
		<stop  offset="1" style="stop-color:#945B89"/>
	</linearGradient>
	<path style="fill:url(#SVGID_1_);" d="M175.384,280.031L328.071,173.15c4.189-2.932,9.52,1.668,7.234,6.241l-43.074,86.148
		c-0.811,1.622-1.953,3.057-3.352,4.212l-73.72,60.862c-5.589,4.614-13.871,3.768-18.412-1.88l-24.04-29.904
		C167.994,292.969,169.223,284.344,175.384,280.031z"/>
	<path style="fill:#C695C9;" d="M24.586,395.939l125.626-84.073c1.742-1.166,2.788-3.124,2.788-5.221v-2.363
		c0-3.469-2.812-6.282-6.282-6.282h-9.751c-1.281,0-2.53,0.391-3.582,1.122L16.081,380.555c-1.335,0.927-2.259,2.335-2.578,3.928
		l-1,5.002c-0.777,3.887,2.196,7.514,6.16,7.514h2.429C22.336,397,23.552,396.631,24.586,395.939z"/>
	<path style="fill:#945B89;" d="M368.395,151h9.368c2.747,0,5.416-0.913,7.588-2.594l51.755-40.069
		c3.72-2.879,5.127-6.884,4.799-10.702l-37.063,1.561l-43.357,29.121c-3.427,2.302-5.483,6.16-5.483,10.289
		C356,145.451,361.549,151,368.395,151z"/>
	
		<rect x="358.105" y="129" transform="matrix(0.7071 0.7071 -0.7071 0.7071 205.3698 -231.8064)" style="fill:#FEFFFD;" width="48.79" height="6"/>
	
		<rect x="370.105" y="120" transform="matrix(0.7071 0.7071 -0.7071 0.7071 202.5205 -242.9278)" style="fill:#FEFFFD;" width="48.79" height="6"/>
</g>
</svg>
